<?xml version="1.0" encoding="utf-8"?>
<!-- Generator: Adobe Illustrator 15.1.0, SVG Export Plug-In . SVG Version: 6.00 Build 0)  -->
<!DOCTYPE svg PUBLIC "-//W3C//DTD SVG 1.1//EN" "http://www.w3.org/Graphics/SVG/1.1/DTD/svg11.dtd">
<svg version="1.1"
	 id="svg2" sodipodi:version="0.32" sodipodi:docname="ampelmaennchen.svg" sodipodi:docbase="/home/matthew/media/image/my_pictures/svg" inkscape:version="0.41" xmlns:cc="http://web.resource.org/cc/" xmlns:dc="http://purl.org/dc/elements/1.1/" xmlns:inkscape="http://www.inkscape.org/namespaces/inkscape" xmlns:rdf="http://www.w3.org/1999/02/22-rdf-syntax-ns#" xmlns:sodipodi="http://inkscape.sourceforge.net/DTD/sodipodi-0.dtd" xmlns:svg="http://www.w3.org/2000/svg"
	 xmlns="http://www.w3.org/2000/svg" xmlns:xlink="http://www.w3.org/1999/xlink" x="0px" y="0px" width="419.527px"
	 height="297.637px" viewBox="0 0 419.527 297.637" enable-background="new 0 0 419.527 297.637" xml:space="preserve">
<sodipodi:namedview  id="base" inkscape:current-layer="layer1" inkscape:pageopacity="0.0" inkscape:document-units="px" inkscape:window-width="1672" inkscape:window-x="0" inkscape:window-y="0" inkscape:window-height="972" inkscape:pageshadow="2" showguides="true" pagecolor="#ffffff" bordercolor="#666666" borderopacity="1.0" inkscape:cx="260.71430" inkscape:cy="184.64285" inkscape:zoom="1.9925926">
	</sodipodi:namedview>
<g id="g1369" transform="matrix(0.838607,0.000000,0.000000,0.838607,175.1909,-40.45176)" inkscape:label="Layer 1">
	<path id="path1371" sodipodi:nodetypes="ccccssssssssssssssssssssssszssssszsssssssssssssssssssssssscccsccccc" d="M34.367,368.152
		c-8.786-0.674-18.558-2.491-21.455-3.99l-1.317-0.68l0.919-0.978c0.507-0.539,2.061-1.587,3.456-2.331
		c3.664-1.952,4.113-2.517,4.113-5.158c0-1.227-1.229-9.558-2.731-18.513c-3.464-20.666-5.598-35.65-7.751-54.46
		c-4.785-41.8-5.367-45.009-9.676-53.289c-3.457-6.647-8.846-11.058-16.807-13.76c-8.381-2.846-19.553-4.467-34.459-5
		c-4.043-0.146-8.156-0.465-9.138-0.709c-1.846-0.46-3.436-1.942-4.812-4.485c-0.685-1.266-0.828-1.323-3.346-1.323
		c-1.446,0-5.102,0.406-8.124,0.901c-5.264,0.864-5.559,0.872-7.027,0.176c-0.919-0.437-2.119-1.594-3.003-2.897
		c-5.411-7.978-2.837-20.783,4.608-22.918c1.404-0.403,3.719,0.146,7.524,1.786c1.935,0.834,3.234,1.088,5.594,1.096
		c3.242,0.01,4.009-0.247,6.38-2.142c3.46-2.766,11.058-4.25,34.24-6.685c18.25-1.917,16.73-1.502,39.913-10.91
		c4.621-1.875,8.827-3.81,9.347-4.299c0.735-0.691,0.946-1.353,0.946-2.982c0-1.999-0.111-2.202-2.423-4.444
		c-1.332-1.291-3.626-3.375-5.099-4.629c-3.304-2.816-5.537-6.319-11.156-16.985c-5.619-10.666-4.558-9.42-14.406-13.35
		c-6.21-2.478-8.089-3.441-8.089-4.144c0-1.14,5.664-2.943,15.043-4.786c8.44-1.659,8.943-1.921,15.837-8.236
		c13.154-12.052,23.09-16.599,34.528-15.804c10.835,0.753,21.644,6.196,31.643,14.992c10.001,8.796,9.89,8.481,18.956,10.65
		c6.496,1.554,10.717,2.937,11.654,3.818c0.474,0.444,0.259,0.719-1.26,1.608c-1.007,0.589-4.148,2.057-6.98,3.262
		c-2.832,1.205-5.873,2.81-6.758,3.567c-1.11,0.95-2.471,3.055-4.396,6.794c-5.125,9.957-9.224,14.796-16.886,19.933
		c-6.179,4.143-6.933,4.971-6.933,7.609c0,1.957,1.319,3.378,4.451,4.793c7.664,3.464,26.097,11.105,28.529,11.827
		c3.937,1.169,6.365,1.503,20.167,2.778c20.41,1.884,27.497,3.074,30.67,5.15c2.153,1.41,5.078,1.668,9.105,0.802
		c7.013-1.506,8.896-1.328,11.291,1.067c3.969,3.969,5.069,10.675,2.848,17.351c-1.061,3.188-2.448,5.021-4.652,6.146
		c-2.294,1.169-4.306,0.915-10.161-1.284c-2.505-0.94-4.954-1.706-5.442-1.701c-0.597,0.005-1.853,1.173-3.83,3.56
		c-3.435,4.149-2.39,3.837-14.074,4.202c-14.474,0.453-25.356,1.662-30.493,3.39c-5.903,1.985-10.067,5.247-12.041,9.434
		c-2.548,5.406-4.37,16.206-6.198,36.755c-2.295,25.789-5.421,46.701-11.584,77.5c-1.733,8.658-3.266,17.116-3.409,18.797
		l-0.259,3.057l1.847,0.781c1.015,0.43,2.741,1.107,3.836,1.506c1.093,0.398,2.407,1.064,2.919,1.479l0.93,0.753l-1.293,0.67
		c-3.035,1.569-13.785,3.679-21.352,4.446C49.279,368.482,39.785,368.567,34.367,368.152z"/>
</g>
</svg>
