<?xml version="1.0" encoding="utf-8"?>
<!-- Generator: Adobe Illustrator 15.1.0, SVG Export Plug-In . SVG Version: 6.00 Build 0)  -->
<!DOCTYPE svg PUBLIC "-//W3C//DTD SVG 1.1//EN" "http://www.w3.org/Graphics/SVG/1.1/DTD/svg11.dtd">
<svg version="1.1"
	 id="svg2" sodipodi:version="0.32" sodipodi:docname="ampelmaennchen.svg" sodipodi:docbase="/home/matthew/media/image/my_pictures/svg" inkscape:version="0.41" xmlns:cc="http://web.resource.org/cc/" xmlns:dc="http://purl.org/dc/elements/1.1/" xmlns:inkscape="http://www.inkscape.org/namespaces/inkscape" xmlns:rdf="http://www.w3.org/1999/02/22-rdf-syntax-ns#" xmlns:sodipodi="http://inkscape.sourceforge.net/DTD/sodipodi-0.dtd" xmlns:svg="http://www.w3.org/2000/svg"
	 xmlns="http://www.w3.org/2000/svg" xmlns:xlink="http://www.w3.org/1999/xlink" x="0px" y="0px" width="419.527px"
	 height="297.637px" viewBox="0 0 419.527 297.637" enable-background="new 0 0 419.527 297.637" xml:space="preserve">
<sodipodi:namedview  id="base" inkscape:current-layer="layer1" inkscape:pageopacity="0.0" inkscape:document-units="px" inkscape:window-width="1672" inkscape:window-x="0" inkscape:window-y="0" inkscape:window-height="972" inkscape:pageshadow="2" showguides="true" pagecolor="#ffffff" bordercolor="#666666" borderopacity="1.0" inkscape:cx="260.71430" inkscape:cy="184.64285" inkscape:zoom="1.9925926">
	</sodipodi:namedview>
<g id="layer1" inkscape:groupmode="layer" inkscape:label="Layer 1">
	<g id="g1344" transform="matrix(1.180066,0.000000,0.000000,1.180066,-19.08430,22.11447)" inkscape:label="Layer 1">
		<g id="g1316" transform="matrix(0.267932,0.000000,0.000000,0.267932,54.52761,45.26935)">
			<path id="path1332" d="M789.274,627.959c-2.632-2.632-3.005-7.045-1.341-15.836c2.15-11.342,7.079-27.032,14.927-47.503
				c3.629-9.464,7.357-20.24,8.287-23.943l1.693-6.736l-7.783-7.345c-9.044-8.528-27.109-23.088-58.054-46.784
				c-39.099-29.935-74.733-58.916-98.275-79.925c-12.62-11.261-16.679-13.924-19.177-12.586
				c-3.614,1.934-30.454,29.768-70.418,73.028c-77.105,83.455-123.994,132.985-129.83,137.139l-2.896,2.063l-3.754-2.486
				c-19.712-13.043-97.691-83.579-117.784-106.54c-7.431-8.491-13.368-18.634-13.368-22.837c0-1.288,0.957-3.299,2.125-4.466
				c1.872-1.872,2.857-2.051,8.25-1.495c7.064,0.726,25.766,5.535,46.626,11.99c22.453,6.946,24.987,7.061,33.384,1.501
				c5.712-3.787,13.965-13.269,51.236-58.87c65.52-80.169,69.38-85.528,69.38-96.292c0-7.478-1.881-10.989-7.289-13.609
				c-5.682-2.749-9.179-2.65-17.417,0.491c-21.046,8.027-25.869,9.491-29.965,9.084c-6.043-0.596-14.291-4.769-39.458-19.959
				c-12.305-7.425-34.072-20.141-48.373-28.255c-36.608-20.777-40.588-23.662-42.021-30.46c-1.407-6.665-7.349-13.349-28.479-32.02
				c-23.364-20.648-36.157-34.034-39.641-41.481c-4.352-9.303-2.656-16.113,7.308-29.351c11.311-15.026,18.35-20.149,27.693-20.149
				c9.442,0,18.164,5.728,38.142,25.044c22.139,21.407,30.315,27.347,45.999,33.413c5.501,2.128,20.799,8.466,34,14.087
				c24.998,10.643,43.64,17.21,51.513,18.143c8.389,0.995,17.278-5.862,29.685-22.899c14.646-20.11,19.758-26.667,29.917-38.38
				c13.114-15.117,22.387-27.929,22.387-30.933c0-6.02-11.598-15.048-24.888-19.378c-15.162-4.937-29.668-16.387-35.328-27.883
				c-3.082-6.264-3.283-7.319-3.28-17.193c0.002-7.478,0.851-14.946,2.934-25.818l2.933-15.298L468.471-3.205
				c-6.258-6.279-10.016-10.773-9.436-11.283c7.583-6.634,13.724-9.933,21.608-11.609c4.273-0.908,11.809-10.277,20.107-25
				c4.262-7.563,7.749-14.12,7.749-14.574c0-0.452-3.262-2.624-7.249-4.824c-12.921-7.132-33.646-21.733-43.479-30.636
				c-4.386-3.97-4.635-4.451-3.543-6.846c3.706-8.137,28.935-5.833,69.402,6.338l7.629,2.295l6.326-6.915
				c16.407-17.947,23.329-23.415,29.626-23.415c1.535,0,15.616,5.994,31.288,13.317c15.678,7.323,49.425,22.927,74.999,34.673
				c25.577,11.746,46.676,21.491,46.892,21.658c0.216,0.165-0.401,9.209-1.365,20.096c-0.97,10.888-1.594,20.538-1.393,21.443
				c0.229,1.022,11.777,7.359,30.368,16.662c16.5,8.258,33.138,17.182,36.977,19.832c7.663,5.294,10.088,9.184,7.397,11.874
				c-4.12,4.12-33.12,4.352-58.715,0.469c-15.737-2.388-24.212-2.565-28.039-0.585c-7.938,4.103-49.122,65.135-49.122,72.792
				c0,3.161,4.584,13.8,17.778,41.271c23.505,48.93,31.347,67.172,41.064,95.498c11.45,33.385,12.494,35.591,24.521,51.747
				c17.686,23.767,38.605,46.747,112.646,123.753c62.042,64.528,71.138,74.52,74.637,82.001c2.505,5.359,3.008,11.65,1.294,16.163
				c-1.955,5.136-16.268,21.624-35.439,40.817c-34.361,34.401-70.381,64.973-85.469,72.543
				C801.632,629.308,791.517,630.201,789.274,627.959z"/>
			<path id="path1330" d="M789.274,627.959c-2.632-2.632-3.005-7.045-1.341-15.836c2.15-11.342,7.079-27.032,14.927-47.503
				c3.629-9.464,7.357-20.24,8.287-23.943l1.693-6.736l-7.783-7.345c-9.044-8.528-27.109-23.088-58.054-46.784
				c-39.099-29.935-74.733-58.916-98.275-79.925c-12.787-11.409-16.663-13.933-19.273-12.537
				c-3.642,1.952-30.751,30.08-70.81,73.479c-75.056,81.309-123.478,132.466-129.342,136.639l-2.896,2.063l-3.754-2.486
				c-19.712-13.043-97.691-83.579-117.784-106.54c-7.431-8.491-13.368-18.634-13.368-22.837c0-1.288,0.957-3.299,2.125-4.466
				c1.872-1.872,2.857-2.051,8.25-1.495c7.064,0.726,25.766,5.535,46.626,11.99c22.453,6.946,24.987,7.061,33.384,1.501
				c5.712-3.787,13.965-13.269,51.236-58.87c65.52-80.169,69.38-85.528,69.38-96.292c0-7.478-1.881-10.989-7.289-13.609
				c-5.682-2.749-9.179-2.65-17.417,0.491c-21.046,8.027-25.869,9.491-29.965,9.084c-5.992-0.593-14.052-4.651-38.349-19.326
				c-11.816-7.132-33.631-19.875-48.481-28.314c-38.139-21.676-41.874-24.369-42.991-30.973
				c-0.882-5.223-6.302-11.857-19.509-23.878c-37.967-34.559-44.858-41.595-48.642-49.684c-4.491-9.603-2.437-16.966,8.651-31.001
				c11.334-14.348,17.247-18.499,26.349-18.499c9.442,0,18.164,5.728,38.142,25.044c22.139,21.407,30.315,27.347,45.999,33.413
				c5.501,2.128,20.799,8.466,34,14.087c24.998,10.643,43.64,17.21,51.513,18.143c8.389,0.995,17.278-5.862,29.685-22.899
				c14.594-20.039,19.753-26.667,29.917-38.429c18.677-21.614,23.143-28.199,22.062-32.511c-1.442-5.751-12.704-13.887-24.564-17.75
				c-15.162-4.937-29.668-16.387-35.328-27.883c-3.082-6.264-3.283-7.319-3.28-17.193c0.002-7.478,0.851-14.946,2.934-25.818
				l2.933-15.298L468.471-3.205c-6.258-6.279-10.016-10.773-9.436-11.283c7.583-6.634,13.724-9.933,21.608-11.609
				c4.273-0.908,11.809-10.277,20.107-25c4.262-7.563,7.749-14.12,7.749-14.574c0-0.452-3.262-2.624-7.249-4.824
				c-12.921-7.132-33.646-21.733-43.479-30.636c-4.392-3.975-4.636-4.448-3.538-6.857c1.677-3.68,7.57-5.03,19.267-4.414
				c11.63,0.613,20.699,2.448,41.643,8.423l16.144,4.605l6.31-6.9c16.395-17.93,23.319-23.401,29.614-23.401
				c1.535,0,15.616,5.995,31.288,13.32c15.678,7.326,49.425,22.93,74.999,34.676c25.577,11.745,46.676,21.489,46.892,21.653
				c0.216,0.165-0.401,9.207-1.365,20.095c-0.97,10.888-1.594,20.538-1.393,21.443c0.229,1.022,11.777,7.359,30.368,16.662
				c16.5,8.258,33.138,17.182,36.977,19.832c7.663,5.294,10.088,9.184,7.397,11.874c-4.12,4.12-33.12,4.352-58.715,0.469
				c-15.737-2.388-24.212-2.565-28.039-0.585c-7.938,4.103-49.122,65.135-49.122,72.792c0,3.154,4.571,13.771,17.769,41.271
				c23.739,49.468,31.365,67.197,41.073,95.498c7.827,22.822,11.437,32.088,14.588,37.468c3.941,6.727,16.253,22.949,26.63,35.099
				c20.978,24.549,34.364,38.914,95.476,102.432c60.782,63.175,71.657,75.116,75.11,82.501c2.505,5.359,3.008,11.65,1.294,16.163
				c-1.955,5.136-16.268,21.624-35.439,40.817c-34.361,34.401-70.381,64.973-85.469,72.543
				C801.632,629.308,791.517,630.201,789.274,627.959z"/>
			<path id="path1328" d="M789.274,627.959c-2.632-2.632-3.005-7.045-1.341-15.836c2.15-11.342,7.079-27.032,14.927-47.503
				c3.629-9.464,7.354-20.231,8.281-23.922l1.686-6.712l-7.413-7.092c-8.5-8.129-26.881-22.943-58.413-47.077
				c-38.077-29.138-74.844-59.046-98.275-79.941c-12.79-11.403-16.666-13.924-19.273-12.528c-3.642,1.952-30.751,30.08-70.81,73.479
				c-74.568,80.781-123.531,132.503-129.378,136.667l-2.86,2.035l-3.754-2.486c-19.712-13.043-97.691-83.579-117.784-106.54
				c-7.431-8.491-13.368-18.634-13.368-22.837c0-1.288,0.957-3.299,2.125-4.466c1.872-1.872,2.857-2.051,8.25-1.495
				c7.153,0.735,25.976,5.59,46.985,12.12c19.001,5.909,22.853,6.387,29.132,3.608c6.968-3.082,13.789-10.588,51.055-56.176
				c71.323-87.258,73.454-90.195,73.454-101.221c0-7.478-1.881-10.989-7.289-13.609c-5.682-2.749-9.179-2.65-17.417,0.491
				c-21.046,8.027-25.869,9.491-29.965,9.084c-5.992-0.593-14.052-4.651-38.349-19.326c-11.816-7.132-33.631-19.875-48.481-28.314
				c-38.139-21.676-41.874-24.369-42.991-30.973c-0.902-5.35-6.397-11.987-20.509-24.786c-35.509-32.199-44.038-40.946-47.734-48.93
				c-4.374-9.454-2.258-16.966,8.633-30.649c11.701-14.707,17.35-18.697,26.459-18.697c9.442,0,18.164,5.728,38.142,25.044
				c22.203,21.469,30.544,27.535,45.999,33.441c5.501,2.103,20.799,8.426,34,14.053c24.984,10.643,43.63,17.216,51.513,18.149
				c5.924,0.701,11.02-1.804,17.908-8.796c4.95-5.031,6.747-7.32,24.258-30.893c4.698-6.322,12.992-16.611,18.432-22.862
				c17.422-20.016,22.138-27.021,21.066-31.288c-1.442-5.751-12.704-13.887-24.564-17.75c-15.162-4.937-29.668-16.387-35.328-27.883
				c-3.082-6.264-3.283-7.319-3.28-17.193c0.002-7.478,0.851-14.946,2.934-25.818l2.933-15.298L468.471-3.205
				c-6.258-6.279-10.016-10.773-9.436-11.283c7.583-6.634,13.724-9.933,21.608-11.609c4.273-0.908,11.809-10.277,20.107-25
				c4.262-7.563,7.749-14.12,7.749-14.574c0-0.452-3.262-2.624-7.249-4.824c-12.921-7.132-33.646-21.733-43.479-30.636
				c-4.392-3.975-4.636-4.448-3.538-6.857c1.677-3.68,7.57-5.03,19.267-4.414c11.63,0.613,20.699,2.448,41.643,8.423l16.144,4.605
				l6.31-6.9c16.395-17.93,23.319-23.401,29.614-23.401c1.535,0,15.616,5.995,31.288,13.32c15.678,7.326,49.425,22.93,74.999,34.676
				c25.577,11.745,46.676,21.489,46.892,21.653c0.216,0.165-0.401,9.207-1.365,20.095c-0.97,10.888-1.594,20.538-1.393,21.443
				c0.229,1.022,11.777,7.359,30.368,16.662c16.5,8.258,33.138,17.182,36.977,19.832c7.663,5.294,10.088,9.184,7.397,11.874
				c-4.12,4.12-33.12,4.352-58.715,0.469c-15.737-2.388-24.212-2.565-28.039-0.585c-7.975,4.123-49.122,65.098-49.122,72.792
				c0,3.154,4.571,13.771,17.769,41.271c23.817,49.628,31.671,67.904,41.144,95.724c7.475,21.954,11.28,31.72,14.517,37.243
				c3.941,6.727,16.253,22.949,26.63,35.099c20.978,24.549,34.364,38.914,95.476,102.432c60.782,63.175,71.657,75.116,75.11,82.501
				c2.505,5.359,3.008,11.65,1.294,16.163c-1.955,5.136-16.268,21.624-35.439,40.817c-34.361,34.401-70.381,64.973-85.469,72.543
				C801.632,629.308,791.517,630.201,789.274,627.959z"/>
			<path id="path1326" d="M789.812,628.607c-6.116-4.238-2.273-23.165,12.954-63.781c4.126-10.999,8.068-22.448,8.763-25.441
				l1.263-5.436l-7.394-7.079c-7.549-7.227-31.09-26.278-54.397-44.023c-34.871-26.553-63.478-49.573-88.827-71.481
				c-24.762-21.398-27.733-23.823-29.864-24.382c-3.728-0.973-18.637,14.038-79.292,79.842
				c-74.389,80.706-123.745,132.519-126.222,132.506c-6.437-0.034-99.084-82.726-121.926-108.829
				c-7.431-8.491-13.368-18.634-13.368-22.837c0-1.288,0.957-3.299,2.125-4.466c1.872-1.872,2.857-2.051,8.25-1.495
				c7.153,0.735,25.976,5.59,46.985,12.12c19.001,5.909,22.853,6.387,29.132,3.608c6.997-3.095,14.118-10.928,51.194-56.322
				c71.811-87.919,73.315-89.988,73.315-100.984c0-7.57-1.866-11.073-7.289-13.701c-5.682-2.749-9.179-2.65-17.417,0.491
				c-16.49,6.292-26.01,9.389-28.796,9.374c-5.146-0.025-13.609-4.225-38.713-19.211c-13.358-7.975-35.536-20.91-49.286-28.743
				c-37.885-21.583-41.6-24.264-43.022-31.01c-1.413-6.696-8.494-14.622-29.478-32.993c-30.264-26.498-40.98-39.442-40.98-49.508
				c0-7.298,6.861-18.489,19.199-31.314c6.59-6.849,11.203-9.186,18.14-9.186c9.617,0,17.593,5.329,39.641,26.49
				c21.647,20.774,29.029,26.084,44.5,31.995c5.501,2.103,20.799,8.432,34,14.066c33.046,14.1,49.666,19.403,56.634,18.072
				c6.735-1.285,16.985-11.721,31.078-31.637c8.132-11.496,16.555-22.031,28.765-35.986c10.264-11.726,17.028-21.463,17.015-24.491
				c-0.018-6.25-10.403-14.344-24.922-19.426c-15.962-5.586-29.629-16.379-35.285-27.867c-3.082-6.264-3.283-7.319-3.28-17.193
				c0.002-7.478,0.851-14.946,2.934-25.818l2.933-15.298L468.471-3.205c-6.258-6.279-10.016-10.773-9.436-11.283
				c7.583-6.634,13.724-9.933,21.608-11.609c4.273-0.908,11.809-10.277,20.107-25c4.262-7.563,7.749-14.149,7.749-14.639
				c0-0.488-1.461-1.629-3.249-2.536c-10.208-5.173-29.69-18.299-42.285-28.49c-9.45-7.646-10.021-8.397-8.656-11.393
				c1.594-3.501,7.708-4.854,19.191-4.248c11.63,0.613,20.699,2.448,41.643,8.423l16.144,4.605l6.31-6.9
				c16.395-17.93,23.319-23.401,29.614-23.401c1.535,0,15.839,6.103,31.788,13.562c15.95,7.459,49.7,23.061,74.999,34.669
				c25.302,11.61,46.182,21.247,46.398,21.418c0.309,0.242-2.372,34.594-3.218,41.246c-0.114,0.891,10.996,7.007,30.89,17
				c40.211,20.198,49.27,26.697,44.239,31.73c-4.052,4.051-33.259,4.25-58.647,0.4c-15.888-2.411-24.209-2.567-28.15-0.528
				c-7.919,4.094-49.011,65.079-49.011,72.735c0,3.154,4.571,13.771,17.769,41.271c23.675,49.329,31.702,67.981,40.746,94.655
				c12.006,35.396,16.03,42.867,36.029,66.845c21.497,25.772,37.274,42.799,100.974,108.999
				c60.97,63.361,71.672,75.113,75.128,82.501c2.724,5.834,3.021,12.293,0.778,17.018c-9.13,19.239-95.643,100.085-120.393,112.504
				C802.877,628.684,791.937,630.08,789.812,628.607z"/>
			<path id="path1324" d="M789.812,628.607c-6.116-4.238-2.273-23.165,12.954-63.781c4.126-10.999,8.068-22.458,8.766-25.46
				l1.269-5.461l-7.953-7.539c-8.451-8.012-28.199-23.829-68.846-55.142c-29.991-23.106-51.207-40.307-73.828-59.858
				c-24.762-21.398-27.733-23.823-29.864-24.382c-3.728-0.973-18.637,14.038-79.292,79.842
				c-74.389,80.706-123.745,132.519-126.222,132.506c-6.429-0.034-99.041-82.699-121.923-108.829
				c-7.433-8.488-13.371-18.631-13.371-22.837c0-1.288,0.957-3.299,2.125-4.466c1.872-1.872,2.857-2.051,8.25-1.495
				c7.153,0.735,25.976,5.59,46.985,12.12c19.001,5.909,22.853,6.387,29.132,3.608c6.996-3.095,14.115-10.928,51.196-56.322
				c72.205-88.394,73.314-89.92,73.314-100.984c0-7.685-1.847-11.064-7.556-13.828c-5.956-2.885-11.141-2.32-22.175,2.406
				c-10.084,4.324-20.586,7.629-24.125,7.598c-4.787-0.043-13.758-4.537-38.358-19.218c-13.358-7.969-35.536-20.91-49.286-28.762
				c-38.129-21.766-41.604-24.271-43.022-30.998c-1.413-6.696-8.494-14.622-29.478-32.993c-30.264-26.498-40.98-39.442-40.98-49.508
				c0-7.298,6.861-18.489,19.199-31.314c6.59-6.849,11.203-9.186,18.14-9.186c9.618,0,17.568,5.343,40.14,26.975
				c21.381,20.493,28.627,25.654,44.659,31.819c5.862,2.255,21.219,8.596,34.127,14.094c22.119,9.42,36.004,14.501,46.994,17.195
				c12.798,3.135,17.954-1.232,45.555-38.583c4.877-6.597,13.323-17.111,18.767-23.363c17.655-20.265,22.155-26.995,21.034-31.467
				c-1.479-5.889-11.428-12.988-24.725-17.642c-15.798-5.529-29.492-16.371-35.123-27.81c-3.081-6.256-3.283-7.32-3.285-17.193
				c0-7.504,0.84-14.91,2.934-25.82l2.936-15.298L468.464-3.211l-10.409-10.444l3.473-2.99c4.475-3.853,14.609-9.028,17.676-9.028
				c5.342,0,14.739-12.197,26.887-34.899c2.452-4.582,2.664-5.529,1.399-6.267c-20.229-11.813-31.399-19.321-44.525-29.928
				c-9.448-7.635-10.021-8.389-8.656-11.386c1.594-3.501,7.708-4.854,19.191-4.248c11.63,0.613,20.699,2.448,41.643,8.423
				l16.144,4.605l6.31-6.9c16.395-17.93,23.319-23.401,29.614-23.401c1.535,0,15.839,6.103,31.788,13.562
				c15.95,7.459,49.7,23.061,74.999,34.669c25.302,11.61,46.182,21.247,46.398,21.418c0.309,0.242-2.372,34.594-3.218,41.246
				c-0.114,0.891,10.996,7.007,30.89,17c40.211,20.198,49.27,26.697,44.239,31.73c-4.052,4.051-33.259,4.25-58.647,0.4
				c-14.557-2.208-23.625-2.557-27.563-1.061c-7.116,2.706-49.598,65.453-49.598,73.257c0,3.277,4.648,13.95,21.015,48.28
				c23.217,48.69,28.379,60.751,37.499,87.653c11.82,34.855,15.372,41.638,33.169,63.345c21.099,25.735,33.466,39.176,94.272,102.5
				c72.908,75.925,81.145,84.926,84.691,92.502c2.724,5.834,3.021,12.293,0.778,17.018
				c-9.121,19.224-95.665,100.094-120.393,112.504C802.877,628.684,791.937,630.08,789.812,628.607z"/>
			<path id="path1322" d="M789.812,628.607c-6.116-4.238-2.273-23.165,12.954-63.781c4.126-10.999,8.055-22.402,8.738-25.336
				l1.239-5.334l-3.87-4.043c-2.128-2.224-9.047-8.37-15.372-13.664c-10.705-8.963-19.032-15.493-64.998-51
				c-23.322-18.016-45.86-36.391-66.329-54.082c-24.762-21.398-27.733-23.823-29.864-24.382
				c-3.728-0.973-18.643,14.047-79.289,79.842c-66.882,72.559-118.119,126.653-123.796,130.696l-2.863,2.039l-5.509-3.793
				c-10.101-6.959-42.004-34.232-65.351-55.871c-40.064-37.132-55.925-53.73-60.958-63.805c-3.594-7.19-3.794-10.013-0.917-12.892
				c1.872-1.872,2.857-2.051,8.25-1.495c7.153,0.735,25.976,5.59,46.985,12.12c17.945,5.578,22.804,6.295,27.994,4.126
				c8.817-3.682,11.921-7.147,67.308-75.128c54.555-66.959,58.34-72.324,58.34-82.696c0-7.678-1.849-11.064-7.542-13.822
				c-6.16-2.981-10.387-2.4-24.768,3.422c-6.353,2.57-13.992,5.186-16.975,5.813c-4.871,1.022-6.057,0.902-11.592-1.171
				c-3.391-1.266-15.944-8.142-27.894-15.276c-11.952-7.138-34.33-20.191-49.73-29.009c-41.519-23.77-44.586-25.951-46.021-32.758
				c-1.418-6.721-8.068-14.146-29.978-33.484c-30.752-27.14-40.48-38.92-40.48-49.017c0-7.298,6.861-18.489,19.199-31.314
				c6.59-6.849,11.203-9.186,18.14-9.186c9.634,0,17.78,5.478,40.14,26.996c21.021,20.228,28.596,25.62,44.659,31.798
				c5.862,2.255,21.219,8.596,34.127,14.094c22.119,9.42,36.004,14.501,46.994,17.195c12.798,3.135,17.954-1.232,45.555-38.583
				c4.877-6.597,13.323-17.111,18.767-23.363c17.655-20.265,22.155-26.995,21.034-31.467c-1.479-5.889-11.428-12.988-24.725-17.642
				c-15.798-5.529-29.492-16.371-35.123-27.81c-3.081-6.256-3.283-7.32-3.285-17.193c0-7.504,0.84-14.91,2.934-25.82l2.936-15.298
				L468.464-3.211l-10.409-10.444l3.473-2.99c4.475-3.853,14.609-9.028,17.676-9.028c5.342,0,14.739-12.197,26.887-34.899
				c2.452-4.582,2.664-5.529,1.399-6.267c-26.695-15.59-52.943-34.638-53.789-39.037c-0.491-2.55,3.679-5.657,8.576-6.392
				c10.903-1.634,26.845,0.865,52.867,8.29l16.144,4.605l6.31-6.9c16.395-17.933,23.322-23.404,29.614-23.398
				c1.532,0.002,15.613,6.003,31.288,13.337c15.675,7.334,49.425,22.936,74.999,34.672c25.577,11.735,46.682,21.475,46.898,21.642
				c0.309,0.238-2.372,34.594-3.218,41.241c-0.114,0.891,10.996,7.007,30.89,17c40.211,20.198,49.27,26.697,44.239,31.73
				c-4.052,4.051-33.259,4.25-58.647,0.4c-14.557-2.208-23.625-2.557-27.563-1.061c-7.116,2.706-49.598,65.453-49.598,73.257
				c0,3.277,4.648,13.95,21.015,48.28c23.217,48.69,28.379,60.751,37.499,87.653c12.172,35.896,16.12,43.13,37.363,68.457
				c21.676,25.843,36.678,42.015,99.14,106.889c61.273,63.636,72.157,75.586,75.629,83.001c2.724,5.834,3.021,12.293,0.778,17.018
				c-9.121,19.224-95.665,100.094-120.393,112.504C802.877,628.684,791.937,630.08,789.812,628.607z"/>
			<path id="path1320" d="M789.812,628.607c-6.116-4.238-2.273-23.165,12.954-63.781c4.126-10.999,8.055-22.402,8.738-25.339
				l1.239-5.34l-4.37-4.506c-8.256-8.515-19.443-17.51-79.369-63.805c-23.452-18.115-45.947-36.455-66.829-54.481
				c-24.861-21.463-27.739-23.814-29.852-24.363c-3.808-0.998-17.371,12.657-79.298,79.836
				C485.718,539.842,436.504,591.8,429.835,596.884l-3.493,2.666l-5.499-3.787c-10.094-6.953-42.006-34.235-65.342-55.865
				c-40.064-37.132-55.925-53.73-60.958-63.805c-3.594-7.19-3.794-10.013-0.917-12.892c1.872-1.872,2.857-2.051,8.25-1.495
				c7.153,0.735,25.976,5.59,46.985,12.12c17.945,5.578,22.804,6.295,27.994,4.126c8.823-3.688,12.016-7.252,67.311-75.125
				c54.55-66.959,58.337-72.327,58.337-82.699c0-7.678-1.849-11.064-7.542-13.822c-6.16-2.981-10.387-2.4-24.768,3.422
				c-6.353,2.57-13.992,5.186-16.975,5.813c-4.871,1.022-6.057,0.902-11.592-1.171c-3.391-1.266-15.944-8.142-27.894-15.276
				c-11.952-7.138-34.33-20.191-49.73-29.009c-41.519-23.77-44.586-25.951-46.021-32.758c-1.418-6.721-8.068-14.146-29.978-33.484
				c-37.292-32.913-44.636-43.809-38.554-57.208c4.21-9.272,19.463-26.933,26.264-30.411c4.767-2.438,13.002-2.446,18.289-0.015
				c6.253,2.872,15.854,10.569,29.473,23.628c23.02,22.072,29.88,27.013,46.185,33.283c5.862,2.255,21.162,8.556,34,14.007
				c12.838,5.448,25.367,10.64,27.843,11.536c8.176,2.965,22.173,6.662,25.211,6.662c8.066,0,16.549-7.993,34.281-32.304
				c6.897-9.457,17.043-22.371,22.547-28.694c18.995-21.834,23.73-28.803,22.606-33.285c-1.492-5.936-11.397-13.022-24.737-17.69
				c-15.798-5.529-29.492-16.371-35.123-27.81c-3.081-6.256-3.283-7.32-3.285-17.193c0-7.504,0.84-14.91,2.934-25.82l2.936-15.298
				l-10.316-10.35l-10.315-10.35l3.379-3.098c4.075-3.733,14.347-9.107,17.405-9.107c4.729,0,10.168-5.808,18.265-19.5
				c10.574-17.883,11.89-20.679,10.2-21.665c-26.695-15.59-52.943-34.638-53.789-39.037c-0.491-2.55,3.679-5.657,8.576-6.392
				c10.9-1.634,26.845,0.865,52.853,8.285l16.13,4.602l6.832-7.396c16.654-18.038,22.828-22.898,29.083-22.898
				c1.516,0,18.075,7.144,36.792,15.874c18.717,8.732,52.482,24.342,75.036,34.69c22.547,10.349,41.178,18.944,41.394,19.105
				c0.309,0.225-2.375,34.593-3.218,41.226c-0.114,0.891,10.996,7.007,30.89,17c40.211,20.198,49.27,26.697,44.239,31.73
				c-4.052,4.051-33.259,4.25-58.647,0.4c-14.557-2.208-23.625-2.557-27.563-1.061c-7.116,2.706-49.598,65.453-49.598,73.257
				c0,3.293,4.679,14.018,21.052,48.28c19.798,41.419,29.043,63.012,37.28,87.063c9.828,28.712,12.389,34.791,18.612,44.242
				c13.751,20.895,43.457,54.345,103.612,116.665c70.344,72.886,86.643,90.621,90.096,98.031c2.718,5.834,3.015,12.299,0.772,17.018
				c-9.108,19.199-95.696,100.109-120.393,112.504C802.877,628.684,791.937,630.08,789.812,628.607z"/>
			<path id="path1318" d="M789.812,628.607c-6.116-4.238-2.273-23.165,12.954-63.781c4.126-10.999,8.068-22.448,8.763-25.441
				l1.263-5.436l-7.394-7.079c-8.969-8.586-23.928-20.657-58.894-47.528c-40.776-31.331-79.684-63.033-100.474-81.855
				c-10.109-9.155-14.016-11.505-16.71-10.063c-3.666,1.961-29.941,29.228-70.903,73.581
				c-76.558,82.89-121.818,130.721-128.559,135.864l-3.472,2.647l-3.691-2.459c-19.906-13.257-97.903-83.792-117.824-106.552
				c-7.431-8.491-13.369-18.631-13.369-22.837c0-1.288,0.957-3.299,2.125-4.466c1.872-1.872,2.857-2.051,8.25-1.495
				c7.153,0.735,25.976,5.59,46.985,12.12c19.001,5.909,22.853,6.387,29.132,3.608c7.113-3.144,14.126-10.928,55.741-61.853
				c66.786-81.726,68.769-84.481,68.769-95.452c0-7.678-1.849-11.064-7.542-13.822c-6.16-2.981-10.387-2.4-24.768,3.422
				c-6.353,2.57-13.992,5.186-16.975,5.813c-4.871,1.022-6.057,0.902-11.592-1.171c-3.391-1.266-15.944-8.142-27.894-15.276
				c-11.952-7.138-34.33-20.191-49.73-29.009c-41.519-23.77-44.586-25.951-46.021-32.758c-1.418-6.721-8.068-14.146-29.978-33.484
				c-37.292-32.913-44.636-43.809-38.554-57.208c4.21-9.272,19.463-26.933,26.264-30.411c4.767-2.438,13.002-2.446,18.289-0.015
				c6.253,2.872,15.854,10.569,29.473,23.628c23.094,22.139,29.801,26.964,46.527,33.444c6.049,2.347,21.349,8.648,34,14.01
				c12.65,5.359,25.024,10.477,27.5,11.372c8.176,2.965,22.173,6.662,25.211,6.662c8.071,0,16.478-7.842,33.424-31.186
				c11.686-16.098,16.458-22.05,30.533-38.08c8.735-9.949,15.832-20.308,15.832-23.106c0-3.384-3.957-8.404-9.547-12.112
				c-5.226-3.47-9.028-5.204-19.797-9.031c-6.665-2.367-18.325-10.353-24.042-16.464c-2.615-2.795-5.947-7.657-7.407-10.801
				c-3.818-8.236-3.748-21.302,0.227-42.015l2.936-15.298l-10.316-10.35l-10.315-10.35l3.379-3.098
				c4.075-3.733,14.347-9.107,17.405-9.107c4.729,0,10.168-5.808,18.265-19.5c10.574-17.883,11.89-20.679,10.2-21.665
				c-26.695-15.59-52.943-34.638-53.789-39.037c-0.493-2.554,3.682-5.657,8.605-6.395c10.727-1.609,27.183,0.973,52.824,8.288
				l16.13,4.602l6.82-7.396c16.154-17.513,22.992-22.898,29.077-22.898c1.504,0,20.984,8.497,43.291,18.882
				c22.306,10.384,56.078,25.994,75.054,34.689c18.974,8.695,34.679,15.937,34.896,16.098c0.309,0.225-2.354,34.337-3.218,41.249
				c-0.117,0.924,10.659,6.852,30.899,17c39.702,19.908,48.776,26.338,44.48,31.514c-3.49,4.205-33.113,4.503-58.898,0.593
				c-15.246-2.313-24.552-2.554-28.159-0.732c-7.388,3.734-47.136,62.619-48.677,72.112c-0.608,3.745,4.265,15.133,24.437,57.095
				c16.481,34.284,25.312,55.089,33.534,79.002c3.589,10.449,7.969,22.739,9.729,27.304c8.38,21.775,34.321,52.544,113.977,135.197
				c71.854,74.557,85.191,89.074,88.651,96.499c2.718,5.834,3.015,12.299,0.772,17.018c-9.006,18.986-95.282,99.748-119.855,112.202
				C802.886,628.672,792.091,630.189,789.812,628.607z"/>
		</g>
	</g>
</g>
</svg>
