<?xml version="1.0" encoding="utf-8"?>
<!-- Generator: Adobe Illustrator 15.1.0, SVG Export Plug-In . SVG Version: 6.00 Build 0)  -->
<!DOCTYPE svg PUBLIC "-//W3C//DTD SVG 1.1//EN" "http://www.w3.org/Graphics/SVG/1.1/DTD/svg11.dtd">
<svg version="1.1" id="Ebene_1" xmlns="http://www.w3.org/2000/svg" xmlns:xlink="http://www.w3.org/1999/xlink" x="0px" y="0px"
	 width="3370.39px" height="2383.939px" viewBox="0 0 3370.39 2383.939" enable-background="new 0 0 3370.39 2383.939"
	 xml:space="preserve">
<g>
	<defs>
		<rect id="SVGID_1_" x="1288.577" y="756.878" width="600.871" height="458.992"/>
	</defs>
	<clipPath id="SVGID_2_">
		<use xlink:href="#SVGID_1_"  overflow="visible"/>
	</clipPath>
	<path clip-path="url(#SVGID_2_)" fill="#1A1A18" d="M1755.917,756.878c-16.164,0-29.97,5.686-41.341,17.076
		c-11.372,11.391-17.077,25.158-17.077,41.341c0,16.164,5.705,29.95,17.077,41.322c11.371,11.391,25.177,17.096,41.341,17.096
		s29.932-5.705,41.341-17.096c11.372-11.372,17.077-25.158,17.077-41.322c0-16.183-5.705-29.95-17.077-41.341
		C1785.849,762.563,1772.081,756.878,1755.917,756.878 M1874.825,896.665c-9.736-9.736-21.546-14.604-35.466-14.604h-166.886
		c-13.919,0-25.747,4.868-35.483,14.604s-14.604,21.545-14.604,35.465v108.487c0,6.96,2.434,12.874,7.303,17.742
		c4.867,4.868,10.801,7.302,17.741,7.302c6.941,0,12.836-2.434,17.742-7.302c4.83-4.868,7.302-10.782,7.302-17.742v-91.791h16.697
		v237.835c0,8.006,2.852,14.852,8.595,20.595c5.724,5.742,12.589,8.614,20.613,8.614c7.968,0,14.833-2.872,20.575-8.614
		c5.743-5.743,8.634-12.589,8.634-20.595v-121h16.677v121c0,8.006,2.872,14.852,8.615,20.595c5.704,5.742,12.588,8.614,20.594,8.614
		c7.968,0,14.852-2.872,20.595-8.614c5.743-5.743,8.614-12.589,8.614-20.595V948.826h16.677v91.791
		c0,6.96,2.435,12.874,7.303,17.742s10.763,7.302,17.761,7.302c6.941,0,12.836-2.434,17.704-7.302s7.302-10.782,7.302-17.742V932.13
		C1889.429,918.21,1884.562,906.401,1874.825,896.665 M1455.491,756.878c-16.184,0-29.951,5.686-41.342,17.076
		s-17.076,25.158-17.076,41.341c0,16.164,5.686,29.95,17.076,41.322c11.391,11.391,25.158,17.096,41.342,17.096
		c16.153,0,29.94-5.705,41.341-17.096c11.371-11.372,17.076-25.158,17.076-41.322c0-16.183-5.705-29.95-17.076-41.341
		C1485.432,762.563,1471.645,756.878,1455.491,756.878 M1618.222,1010.097l-66.775-100.14
		c-12.675-18.598-27.982-27.896-45.896-27.896h-100.148c-17.895,0-33.202,9.299-45.896,27.896l-66.746,100.14
		c-2.786,4.183-4.193,8.785-4.193,13.824c0,6.96,2.434,12.874,7.302,17.742s10.792,7.302,17.742,7.302
		c8.861,0,15.812-3.727,20.87-11.219l59.197-88.92h11.724v34.419l-64.417,107.175c-1.55,2.625-2.33,5.477-2.33,8.615
		c0,4.525,1.654,8.424,4.944,11.732c3.31,3.309,7.227,4.963,11.743,4.963h50.06v70.931c0,8.006,2.881,14.852,8.604,20.595
		c5.753,5.742,12.627,8.614,20.604,8.614h41.73c8.006,0,14.88-2.872,20.604-8.614c5.742-5.743,8.604-12.589,8.604-20.595v-70.931
		h50.089c4.516,0,8.424-1.654,11.713-4.963c3.318-3.309,4.973-7.207,4.973-11.732c0-3.139-0.779-5.99-2.357-8.615l-64.417-107.175
		v-34.419h11.742l59.197,88.92c5.039,7.492,11.989,11.219,20.87,11.219c6.96,0,12.855-2.434,17.723-7.302
		c4.869-4.868,7.303-10.782,7.303-17.742C1622.386,1018.882,1621.017,1014.279,1618.222,1010.097"/>
</g>
</svg>
